<svg width="121" height="40" viewBox="0 0 121 40" fill="none" xmlns="http://www.w3.org/2000/svg">
<g id="logo 12" clip-path="url(#clip0_70_6207)">
<g id="Layer 2">
<g id="Layer 1">
<path id="Vector" fill-rule="evenodd" clip-rule="evenodd" d="M24.6109 6.57377H116.317C116.977 6.54893 117.633 6.67889 118.234 6.95331C118.835 7.22774 119.363 7.63905 119.778 8.15451C120.192 8.66998 120.481 9.27538 120.621 9.92254C120.761 10.5697 120.749 11.2408 120.585 11.8823L117.19 28.3123C116.835 29.7806 116.013 31.0929 114.849 32.0507C113.684 33.0085 112.24 33.5597 110.736 33.6209H19.0292C18.3696 33.6457 17.7133 33.5158 17.1126 33.2413C16.5119 32.9669 15.9833 32.5556 15.5689 32.0401C15.1544 31.5247 14.8656 30.9193 14.7254 30.2721C14.5852 29.6249 14.5975 28.9539 14.7613 28.3123L18.1209 11.9089C18.476 10.4406 19.298 9.12828 20.4626 8.17048C21.6272 7.21268 23.071 6.6615 24.5756 6.60031" fill="#715731"/>
<path id="Vector_2" fill-rule="evenodd" clip-rule="evenodd" d="M25.3691 6.2818H115.577C116.235 6.25315 116.891 6.38141 117.49 6.65605C118.089 6.93069 118.615 7.3439 119.025 7.86183C119.434 8.37977 119.716 8.98768 119.846 9.63577C119.976 10.2839 119.951 10.9537 119.774 11.5904L116.467 27.7284C116.126 29.1796 115.32 30.4789 114.174 31.4279C113.028 32.3768 111.603 32.9233 110.118 32.9839H19.9108C19.2578 33.0119 18.6074 32.8851 18.0122 32.614C17.4171 32.3428 16.894 31.9348 16.4852 31.423C16.0765 30.9113 15.7936 30.3101 15.6595 29.6682C15.5255 29.0263 15.544 28.3618 15.7135 27.7284L19.0202 11.5904C19.3543 10.1306 20.1561 8.82108 21.3028 7.86227C22.4496 6.90347 23.8779 6.34829 25.3691 6.2818Z" fill="#EACE76"/>
<path id="Vector_3" fill-rule="evenodd" clip-rule="evenodd" d="M26.3216 7.69741H115.109C115.606 7.6756 116.101 7.77245 116.553 7.98C117.005 8.18754 117.401 8.49984 117.709 8.89119C118.018 9.28253 118.229 9.74174 118.326 10.231C118.422 10.7203 118.402 11.2256 118.266 11.7054L114.889 27.4718C114.612 28.5777 113.987 29.5647 113.107 30.2865C112.227 31.0084 111.139 31.4268 110.004 31.4798H21.216C20.7192 31.5011 20.2244 31.404 19.7722 31.1965C19.32 30.9889 18.9233 30.6769 18.6144 30.2859C18.3056 29.8948 18.0934 29.436 17.9954 28.9468C17.8973 28.4577 17.9162 27.9522 18.0503 27.4718L21.4364 11.7054C21.7137 10.5995 22.3384 9.61251 23.2183 8.89065C24.0981 8.16879 25.1863 7.7504 26.3216 7.69741Z" fill="#05A6E6"/>
<path id="Vector_4" fill-rule="evenodd" clip-rule="evenodd" d="M37.7583 7.69741H112.772C115.1 7.69741 115.418 7.69741 115.594 7.69741C115.781 7.71861 115.965 7.76319 116.141 7.83013C116.306 7.88187 116.468 7.94393 116.626 8.01593C116.793 8.0919 116.952 8.18374 117.102 8.2902C117.252 8.38753 117.384 8.50254 117.411 8.52024C117.309 8.46822 117.198 8.43524 117.084 8.42292C116.82 8.42292 116.37 8.42292 102.429 8.42292H47.3345C33.6138 8.42292 33.6138 8.42292 33.4727 8.32559C33.3317 8.22827 33.0407 7.95399 33.0759 7.83897C33.1112 7.72396 33.508 7.69741 37.7583 7.69741Z" fill="#056991"/>
<path id="Vector_5" d="M44.3366 13.9438H48.437C49.1304 13.9166 49.8208 14.0492 50.4551 14.3314C51.0895 14.6136 51.651 15.0379 52.0964 15.5718C52.5418 16.1157 52.8536 16.7569 53.0068 17.4438C53.1599 18.1308 53.1502 18.8442 52.9782 19.5267C52.6104 21.075 51.7441 22.4585 50.5135 23.463C49.2828 24.4674 47.7565 25.0368 46.1708 25.0829H42.0352L44.3366 13.9438ZM45.4301 22.6322H46.0826C46.9441 22.6431 47.788 22.3866 48.4987 21.8978C48.8844 21.6173 49.2102 21.2623 49.457 20.8535C49.7039 20.4448 49.8667 19.9906 49.936 19.5178C50.0584 19.1285 50.0854 18.7154 50.0148 18.3134C49.9442 17.9114 49.778 17.5324 49.5304 17.2086C49.2566 16.9258 48.9246 16.7065 48.5575 16.5659C48.1904 16.4253 47.7972 16.3669 47.4053 16.3946H46.7351L45.4301 22.6322Z" fill="white"/>
<path id="Vector_6" d="M57.8193 16.3946L57.4401 18.2614H60.7027L60.2001 20.7122H56.9287L56.5407 22.6322H59.962L59.4506 25.0829H53.137L55.4384 13.9438H61.7697L61.2671 16.3946H57.8193Z" fill="white"/>
<path id="Vector_7" d="M70.5435 22.6322L70.0408 25.0829H60.4734L67.5277 16.3946H63.1188L63.6214 13.9438H72.889L65.8347 22.6322H70.5435Z" fill="white"/>
<path id="Vector_8" d="M76.3808 16.3946L75.9928 18.2614H79.2643L78.7528 20.7122H75.4902L75.0934 22.6322H78.5324L78.0298 25.0829H71.6985L73.9912 13.9438H80.3312L79.8198 16.3946H76.3808Z" fill="white"/>
<path id="Vector_9" d="M82.1125 13.9438H85.0048L88.9023 20.7565L90.3132 13.9438H93.2055L90.904 25.0829H88.0382L84.1495 18.2614L82.7121 25.0829H79.811L82.1125 13.9438Z" fill="white"/>
<path id="Vector_10" d="M96.0539 23.1453L94.8899 25.0829H91.8213L98.3995 13.9438H101.556L103.452 25.0829H100.366L100.04 23.1453H96.0539ZM99.2724 17.3855L97.3501 20.9246H99.7574L99.2724 17.3855Z" fill="white"/>
<path id="Vector_11" d="M113.751 14.5631L112.173 16.8104C111.944 16.5918 111.678 16.4151 111.388 16.2884C111.077 16.1524 110.74 16.0831 110.401 16.0849H110.224H110.039C109.793 16.1402 109.559 16.2423 109.351 16.3858C109.249 16.4505 109.16 16.5358 109.092 16.6362C109.024 16.7367 108.977 16.8502 108.954 16.9697C108.925 17.0702 108.923 17.1768 108.95 17.2782C108.976 17.3795 109.03 17.4717 109.104 17.5448C109.25 17.6893 109.42 17.8063 109.607 17.8898L109.819 17.9695L110.021 18.0403L110.709 18.2438C111.373 18.4328 111.98 18.7857 112.473 19.2701C112.699 19.5514 112.851 19.885 112.916 20.2404C112.98 20.5958 112.955 20.9617 112.843 21.305C112.838 21.3432 112.838 21.3819 112.843 21.42V21.5351C112.713 22.0602 112.514 22.5658 112.252 23.0392C111.972 23.5534 111.58 23.9979 111.106 24.3397C110.675 24.6575 110.196 24.9026 109.686 25.0653C109.196 25.2189 108.69 25.3197 108.178 25.3661H107.729C107.054 25.3711 106.383 25.2604 105.745 25.0387C105.142 24.8425 104.579 24.5432 104.078 24.1539L105.842 21.8093C106.139 22.1338 106.484 22.4112 106.865 22.6322C107.26 22.8657 107.711 22.9851 108.17 22.9772H108.293C108.627 22.9546 108.951 22.8514 109.237 22.6764C109.385 22.5883 109.513 22.4693 109.612 22.3273C109.711 22.1854 109.778 22.0238 109.81 21.8536C109.841 21.7358 109.84 21.6115 109.806 21.4944C109.772 21.3774 109.706 21.272 109.616 21.19C109.418 21.0186 109.191 20.8838 108.946 20.7919L108.619 20.6768L108.311 20.5795H108.249H108.187C107.493 20.403 106.843 20.0803 106.283 19.6328C105.842 19.2524 105.736 18.5357 105.948 17.4829C106.149 16.4061 106.735 15.4401 107.596 14.7666C108.437 14.0919 109.483 13.7293 110.559 13.7403C110.789 13.7418 111.019 13.7566 111.247 13.7846C111.477 13.8035 111.704 13.845 111.926 13.9084C112.246 13.9681 112.561 14.0509 112.87 14.1562C113.178 14.2719 113.474 14.4202 113.751 14.5985V14.5631Z" fill="white"/>
<path id="Vector_12" fill-rule="evenodd" clip-rule="evenodd" d="M19.9991 3.12974e-05C23.9396 0.0122724 27.7882 1.19591 31.0588 3.40145C34.3293 5.60699 36.8751 8.73552 38.3747 12.3919C39.8742 16.0483 40.2603 20.0686 39.484 23.945C38.7078 27.8213 36.8041 31.38 34.0134 34.1715C31.2226 36.9629 27.67 38.862 23.8043 39.6289C19.9385 40.3958 15.9329 39.996 12.2935 38.4801C8.65399 36.9642 5.54383 34.4002 3.35581 31.1119C1.16778 27.8235 1.88855e-05 23.9583 0 20.0045C0.00347085 17.3732 0.52358 14.7684 1.53061 12.3389C2.53765 9.90939 4.01188 7.70276 5.86908 5.84506C7.72628 3.98736 9.93006 2.515 12.3545 1.51209C14.779 0.509185 17.3766 -0.00461986 19.9991 3.12974e-05Z" fill="#FFA600"/>
<path id="Vector_13" opacity="0.3" fill-rule="evenodd" clip-rule="evenodd" d="M37.6436 11.8735C38.6792 14.2915 39.1986 16.9004 39.1682 19.5321C39.1378 22.1638 38.5584 24.7599 37.4673 27.1533C37.4144 27.2418 37.3615 27.3568 37.2909 27.4983C37.111 27.8415 36.9138 28.1751 36.7001 28.4981C36.5701 28.7146 36.4064 28.9088 36.2151 29.0732C36.1727 29.1077 36.1198 29.1265 36.0652 29.1265C36.0106 29.1265 35.9577 29.1077 35.9153 29.0732C35.836 29.0113 35.7654 28.914 35.8183 28.4981C35.8712 28.0823 36.0388 27.3656 36.171 26.7286C36.5796 25.133 36.7869 23.4922 36.7883 21.8447C36.7837 18.3413 35.8329 14.9046 34.0371 11.9C34.3067 12.1807 34.6019 12.4354 34.9189 12.6609C35.2496 12.9052 35.646 13.0439 36.0564 13.0591C36.3892 13.0888 36.7243 13.0403 37.0352 12.9175C37.1825 12.8568 37.3139 12.7631 37.4194 12.6434C37.5249 12.5238 37.6016 12.3815 37.6436 12.2274C37.658 12.1099 37.658 11.991 37.6436 11.8735ZM20.0871 0.353904C23.1477 0.349047 26.1648 1.08088 28.8852 2.48798C31.6056 3.89509 33.9499 5.9364 35.7213 8.44061C35.8271 8.6441 36.0123 8.93608 36.171 9.24574C36.4022 9.6777 36.5742 10.139 36.6825 10.6171C36.7656 10.8911 36.7656 11.1837 36.6825 11.4576C36.6411 11.5619 36.578 11.6561 36.4974 11.734C36.4168 11.8118 36.3206 11.8714 36.2151 11.9089C35.9095 12.0201 35.5774 12.0355 35.2628 11.9531C34.8247 11.8504 34.415 11.6509 34.0635 11.3692C33.679 11.0675 33.3325 10.7198 33.0318 10.334C32.9789 10.2809 32.9349 10.219 32.8819 10.157C31.0002 7.65445 28.5625 5.62679 25.7628 4.23526C22.963 2.84372 19.8783 2.12668 16.7539 2.14112C15.2016 2.14117 13.6542 2.31927 12.1422 2.67198C12.0514 2.68345 11.9596 2.68345 11.8688 2.67198C11.7277 2.67198 11.5955 2.67198 11.5778 2.54811C11.5602 2.42424 11.6396 2.34461 11.8424 2.2119C12.1255 2.0514 12.4203 1.9124 12.7242 1.79606L13.6059 1.4687H13.7029C15.752 0.734276 17.9113 0.357231 20.0871 0.353904Z" fill="white"/>
<path id="Vector_14" fill-rule="evenodd" clip-rule="evenodd" d="M15.8723 8.4937C18.1146 8.50418 20.3035 9.18092 22.1628 10.4385C24.0221 11.696 25.4685 13.4781 26.3193 15.5597C27.1701 17.6412 27.3874 19.9291 26.9435 22.1344C26.4997 24.3397 25.4146 26.3637 23.8254 27.9509C22.2362 29.538 20.214 30.6173 18.014 31.0524C15.814 31.4874 13.5349 31.2589 11.4643 30.3955C9.39368 29.5321 7.62437 28.0726 6.37969 26.2012C5.135 24.3298 4.47073 22.1304 4.4707 19.8806C4.47301 18.3814 4.76989 16.8974 5.34434 15.5135C5.91879 14.1295 6.75955 12.8728 7.81852 11.8152C8.87748 10.7576 10.1339 9.91989 11.5158 9.34995C12.8978 8.78001 14.3782 8.48904 15.8723 8.4937Z" fill="white"/>
<path id="Vector_15" d="M23.6144 14.4216C23.3049 13.9209 22.8637 13.5155 22.3394 13.2502C21.8151 12.9848 21.2281 12.8697 20.6428 12.9175C19.9769 12.9117 19.3168 13.0421 18.7028 13.3007C18.0888 13.5593 17.5338 13.9407 17.0715 14.4216C16.0037 15.5468 15.2972 16.9677 15.0434 18.5003L14.4438 21.4643C14.0536 22.8275 14.1824 24.2875 14.8053 25.5607C15.1123 26.0623 15.5514 26.4691 16.0742 26.7361C16.5971 27.0031 17.1833 27.1199 17.7681 27.0737C18.4363 27.0805 19.0987 26.9498 19.7145 26.6896C20.3303 26.4294 20.8863 26.0452 21.3482 25.5607C22.4192 24.4296 23.1286 23.003 23.3852 21.4643L23.9848 18.5003C24.3772 17.1424 24.245 15.686 23.6144 14.4216ZM20.5722 17.6952L19.6904 22.234C19.5229 23.0657 19.1437 23.4727 18.5441 23.4727C17.9445 23.4727 17.7329 23.0657 17.9004 22.234L18.7822 17.6952C18.9497 16.8724 19.3289 16.4565 19.9197 16.4565C20.5105 16.4565 20.7398 16.8901 20.5722 17.6952Z" fill="black"/>
<path id="Vector_16" d="M19.9196 16.4742C19.3288 16.4742 18.9496 16.8901 18.7821 17.7129L17.8562 22.2517C17.6887 23.0834 17.9091 23.4904 18.4999 23.4904C19.0907 23.4904 19.4787 23.0834 19.6462 22.2517L20.528 17.7129C20.7397 16.8901 20.5192 16.4742 19.9196 16.4742Z" fill="white" stroke="white" stroke-miterlimit="10"/>
<path id="Vector_17" d="M14.2674 13.2449L11.5251 26.7286H7.97144L10.705 13.2449H14.2674Z" fill="black"/>
<path id="Vector_18" fill-rule="evenodd" clip-rule="evenodd" d="M16.0575 6.2818C18.7544 6.24494 21.4012 7.01366 23.6615 8.49019C25.9218 9.96672 27.6934 12.0844 28.751 14.5738C29.8086 17.0633 30.1044 19.8121 29.6009 22.4707C29.0973 25.1293 27.8171 27.5776 25.9231 29.5042C24.0291 31.4309 21.6068 32.7488 18.9642 33.2905C16.3217 33.8321 13.5783 33.573 11.0829 32.5461C8.58755 31.5192 6.45292 29.7708 4.95049 27.5234C3.44806 25.276 2.6457 22.631 2.64545 19.9248C2.62665 16.3328 4.02778 12.8798 6.54179 10.3225C9.05581 7.76524 12.4777 6.31219 16.0575 6.2818ZM16.0575 7.37005C18.5392 7.33671 20.9746 8.04459 23.0542 9.4037C25.1338 10.7628 26.7637 12.7117 27.7365 15.0027C28.7093 17.2936 28.9811 19.8231 28.5174 22.2694C28.0536 24.7158 26.8753 26.9685 25.1323 28.7412C23.3892 30.5138 21.1601 31.7264 18.7284 32.2246C16.2968 32.7228 13.7723 32.4842 11.4762 31.5391C9.18002 30.594 7.21584 28.9851 5.83338 26.917C4.45092 24.8489 3.71264 22.415 3.71242 19.9248C3.69597 16.6191 4.986 13.4416 7.29992 11.0884C9.61383 8.73519 12.763 7.3981 16.0575 7.37005Z" fill="white"/>
</g>
</g>
</g>
<defs>
<clipPath id="clip0_70_6207">
<rect width="120.656" height="40" fill="white"/>
</clipPath>
</defs>
</svg>
